<mxfile host="65bd71144e">
    <diagram id="bcUoIsjHD2eMjOUQ-ZIZ" name="Page-1">
        <mxGraphModel dx="1338" dy="2280" grid="1" gridSize="10" guides="1" tooltips="1" connect="1" arrows="1" fold="1" page="1" pageScale="1" pageWidth="827" pageHeight="1169" math="0" shadow="0">
            <root>
                <mxCell id="0"/>
                <mxCell id="1" parent="0"/>
                <mxCell id="6" style="edgeStyle=none;html=1;exitX=1;exitY=0.5;exitDx=0;exitDy=0;entryX=0;entryY=0.5;entryDx=0;entryDy=0;entryPerimeter=0;dashed=1;endArrow=none;endFill=0;" edge="1" parent="1" source="8" target="9">
                    <mxGeometry relative="1" as="geometry"/>
                </mxCell>
                <mxCell id="7" style="edgeStyle=none;html=1;endArrow=none;endFill=0;" edge="1" parent="1" source="8">
                    <mxGeometry relative="1" as="geometry">
                        <mxPoint x="383.9999999999998" y="-793.9999999999999" as="targetPoint"/>
                    </mxGeometry>
                </mxCell>
                <mxCell id="8" value="Начало" style="rounded=1;whiteSpace=wrap;html=1;arcSize=28;" vertex="1" parent="1">
                    <mxGeometry x="324" y="-873.9999999999999" width="120" height="60" as="geometry"/>
                </mxCell>
                <mxCell id="9" value="Алгоритм Ламбертового освещения для точечных источников света." style="strokeWidth=1;shape=mxgraph.flowchart.annotation_1;align=left;pointerEvents=1;whiteSpace=wrap;fontColor=default;" vertex="1" parent="1">
                    <mxGeometry x="464" y="-893.9999999999999" width="39" height="100" as="geometry"/>
                </mxCell>
                <mxCell id="10" style="edgeStyle=none;html=1;endArrow=none;endFill=0;" edge="1" parent="1" target="13">
                    <mxGeometry relative="1" as="geometry">
                        <mxPoint x="153.99999999999977" y="-788.0699999999999" as="sourcePoint"/>
                    </mxGeometry>
                </mxCell>
                <mxCell id="12" style="edgeStyle=none;html=1;endArrow=none;endFill=0;" edge="1" parent="1" target="15">
                    <mxGeometry relative="1" as="geometry">
                        <mxPoint x="153.99999999999977" y="-708.5699999999999" as="sourcePoint"/>
                    </mxGeometry>
                </mxCell>
                <mxCell id="14" style="edgeStyle=none;html=1;endArrow=none;endFill=0;" edge="1" parent="1" target="17">
                    <mxGeometry relative="1" as="geometry">
                        <mxPoint x="153.99999999999977" y="-629.0699999999999" as="sourcePoint"/>
                    </mxGeometry>
                </mxCell>
                <mxCell id="16" style="edgeStyle=none;html=1;endArrow=none;endFill=0;" edge="1" parent="1" target="20">
                    <mxGeometry relative="1" as="geometry">
                        <mxPoint x="153.99999999999977" y="-549.0699999999999" as="sourcePoint"/>
                    </mxGeometry>
                </mxCell>
                <mxCell id="26" style="edgeStyle=orthogonalEdgeStyle;rounded=0;html=1;strokeColor=default;fontColor=default;endArrow=none;endFill=0;" edge="1" parent="1" source="27" target="32">
                    <mxGeometry relative="1" as="geometry"/>
                </mxCell>
                <mxCell id="27" value="Обработка N пикселей" style="shape=loopLimit;whiteSpace=wrap;html=1;labelBackgroundColor=none;labelBorderColor=none;fontColor=default;" vertex="1" parent="1">
                    <mxGeometry x="324" y="-793.9999999999999" width="120" height="50" as="geometry"/>
                </mxCell>
                <mxCell id="28" style="edgeStyle=orthogonalEdgeStyle;rounded=0;html=1;strokeColor=default;fontColor=default;endArrow=none;endFill=0;" edge="1" parent="1" source="29" target="46">
                    <mxGeometry relative="1" as="geometry"/>
                </mxCell>
                <mxCell id="29" value="Пока остались необработанные пиксели" style="shape=loopLimit;whiteSpace=wrap;html=1;labelBackgroundColor=none;labelBorderColor=none;fontColor=default;direction=west;" vertex="1" parent="1">
                    <mxGeometry x="324" y="-404.93" width="120" height="50" as="geometry"/>
                </mxCell>
                <mxCell id="30" style="edgeStyle=orthogonalEdgeStyle;rounded=0;html=1;strokeColor=default;fontColor=default;endArrow=none;endFill=0;" edge="1" parent="1" source="32">
                    <mxGeometry relative="1" as="geometry">
                        <mxPoint x="384" y="-643.9999999999999" as="targetPoint"/>
                    </mxGeometry>
                </mxCell>
                <mxCell id="49" style="edgeStyle=none;html=1;dashed=1;endArrow=none;endFill=0;" edge="1" parent="1" source="32" target="48">
                    <mxGeometry relative="1" as="geometry"/>
                </mxCell>
                <mxCell id="32" value="L=normalize(Pl​−Pf​)" style="rounded=0;whiteSpace=wrap;" vertex="1" parent="1">
                    <mxGeometry x="324" y="-723.9999999999999" width="120" height="60" as="geometry"/>
                </mxCell>
                <mxCell id="52" style="edgeStyle=none;html=1;exitX=1;exitY=0.5;exitDx=0;exitDy=0;dashed=1;endArrow=none;endFill=0;" edge="1" parent="1" source="35" target="51">
                    <mxGeometry relative="1" as="geometry"/>
                </mxCell>
                <mxCell id="54" style="edgeStyle=none;html=1;endArrow=none;endFill=0;" edge="1" parent="1" source="35" target="53">
                    <mxGeometry relative="1" as="geometry"/>
                </mxCell>
                <mxCell id="35" value="d=max{0,N⋅L}" style="rounded=0;whiteSpace=wrap;" vertex="1" parent="1">
                    <mxGeometry x="324" y="-643.4999999999999" width="120" height="60" as="geometry"/>
                </mxCell>
                <mxCell id="46" value="Конец" style="rounded=1;whiteSpace=wrap;html=1;arcSize=28;" vertex="1" parent="1">
                    <mxGeometry x="324" y="-334.93" width="120" height="60" as="geometry"/>
                </mxCell>
                <mxCell id="48" value="Вычисление направления от пикселя к источнику света" style="strokeWidth=1;shape=mxgraph.flowchart.annotation_1;align=left;pointerEvents=1;whiteSpace=wrap;fontColor=default;" vertex="1" parent="1">
                    <mxGeometry x="464" y="-723.0699999999999" width="39" height="58.14" as="geometry"/>
                </mxCell>
                <mxCell id="51" value="Вычисление косинуса угла между нормалью и L " style="strokeWidth=1;shape=mxgraph.flowchart.annotation_1;align=left;pointerEvents=1;whiteSpace=wrap;fontColor=default;" vertex="1" parent="1">
                    <mxGeometry x="464" y="-642.5699999999999" width="39" height="58.14" as="geometry"/>
                </mxCell>
                <mxCell id="57" style="edgeStyle=none;html=1;endArrow=none;endFill=0;dashed=1;" edge="1" parent="1" source="53" target="56">
                    <mxGeometry relative="1" as="geometry"/>
                </mxCell>
                <mxCell id="59" style="edgeStyle=none;html=1;endArrow=none;endFill=0;" edge="1" parent="1" source="53" target="58">
                    <mxGeometry relative="1" as="geometry"/>
                </mxCell>
                <mxCell id="53" value="A=max" style="rounded=0;whiteSpace=wrap;" vertex="1" parent="1">
                    <mxGeometry x="324" y="-563.9999999999999" width="120" height="60" as="geometry"/>
                </mxCell>
                <mxCell id="56" value="Уменьшение интенсивности с расстоянием" style="strokeWidth=1;shape=mxgraph.flowchart.annotation_1;align=left;pointerEvents=1;whiteSpace=wrap;fontColor=default;" vertex="1" parent="1">
                    <mxGeometry x="464" y="-562.14" width="39" height="58.14" as="geometry"/>
                </mxCell>
                <mxCell id="60" style="edgeStyle=none;html=1;endArrow=none;endFill=0;" edge="1" parent="1" source="58" target="29">
                    <mxGeometry relative="1" as="geometry"/>
                </mxCell>
                <mxCell id="62" style="edgeStyle=none;html=1;endArrow=none;endFill=0;dashed=1;" edge="1" parent="1" source="58" target="61">
                    <mxGeometry relative="1" as="geometry"/>
                </mxCell>
                <mxCell id="58" value="Color" style="rounded=0;whiteSpace=wrap;" vertex="1" parent="1">
                    <mxGeometry x="324" y="-484.92999999999995" width="120" height="60" as="geometry"/>
                </mxCell>
                <mxCell id="61" value="Уменьшение интенсивности с расстоянием" style="strokeWidth=1;shape=mxgraph.flowchart.annotation_1;align=left;pointerEvents=1;whiteSpace=wrap;fontColor=default;" vertex="1" parent="1">
                    <mxGeometry x="464" y="-483.07000000000005" width="39" height="58.14" as="geometry"/>
                </mxCell>
            </root>
        </mxGraphModel>
    </diagram>
</mxfile>